Land_normalized_Precision Landing14_filtered_grf
version=1
nRows=25
nColumns=37
inDegrees=yes
endheader
time		1_ground_force_vx		1_ground_force_vy		1_ground_force_vz		1_ground_force_px		1_ground_force_py		1_ground_force_pz		1_ground_torque_x		1_ground_torque_y		1_ground_torque_z		2_ground_force_vx		2_ground_force_vy		2_ground_force_vz		2_ground_force_px		2_ground_force_py		2_ground_force_pz		2_ground_torque_x		2_ground_torque_y		2_ground_torque_z		3_ground_force_vx		3_ground_force_vy		3_ground_force_vz		3_ground_force_px		3_ground_force_py		3_ground_force_pz		3_ground_torque_x		3_ground_torque_y		3_ground_torque_z		4_ground_force_vx		4_ground_force_vy		4_ground_force_vz		4_ground_force_px		4_ground_force_py		4_ground_force_pz		4_ground_torque_x		4_ground_torque_y		4_ground_torque_z		
0.972000		-39.041795		830.226455		252.235370		0.093049		0.000000		0.297542		-0.340178		7.233917		2.197774		63.760001		777.064520		225.321687		-0.158790		0.000000		0.331351		3.016841		36.767255		10.661225		4.981182		-0.511285		-0.565335		0.353461		1.255040		1.891107		0.000646		0.022892		0.022216		-18.489097		0.674827		-2.506868		-0.288961		1.264846		1.900972		0.008477		-0.000309		0.001149		
0.975106		-48.575221		829.747989		235.598229		0.096935		0.000000		0.302814		-0.383308		6.548323		1.859394		65.862613		763.673144		209.912984		-0.158979		0.000000		0.332903		2.976129		34.508275		9.485453		4.824155		-0.589372		-0.430312		0.353454		1.255037		1.891126		0.002620		0.024149		0.023342		-18.498234		0.624972		-2.482966		-0.288984		1.264858		1.901008		0.009477		-0.000321		0.001272		
0.978212		-57.014514		824.633206		222.640252		0.099439		0.000000		0.304951		-0.377513		5.461234		1.474544		65.963423		746.531724		197.727100		-0.159147		0.000000		0.333724		2.885739		32.658959		8.650130		4.649209		-0.703319		-0.322088		0.353438		1.255051		1.891158		0.005028		0.024306		0.026770		-18.444373		0.566754		-2.528735		-0.289022		1.264867		1.901049		0.009623		-0.000295		0.001319		
0.981318		-63.769965		814.092916		212.326229		0.100518		0.000000		0.304101		-0.333270		4.255262		1.109877		62.879730		725.064895		186.737313		-0.158770		0.000000		0.333820		2.684102		30.950160		7.971105		4.510712		-0.815204		-0.269090		0.353413		1.255078		1.891202		0.007259		0.023262		0.031591		-18.342364		0.520422		-2.646107		-0.289068		1.264872		1.901090		0.008979		-0.000255		0.001295		
0.984424		-68.604467		799.609729		203.698221		0.100748		0.000000		0.301763		-0.278890		3.250770		0.828137		57.330432		700.052288		176.491452		-0.157861		0.000000		0.333325		2.401410		29.323110		7.392709		4.444655		-0.897648		-0.279873		0.353380		1.255113		1.891259		0.008512		0.021526		0.036699		-18.211157		0.503502		-2.785594		-0.289118		1.264871		1.901127		0.008087		-0.000223		0.001237		
0.987530		-71.596704		783.672115		196.597748		0.100868		0.000000		0.299696		-0.243170		2.661671		0.667728		51.157370		673.171764		168.148546		-0.156854		0.000000		0.332383		2.124272		27.952962		6.982244		4.459536		-0.939772		-0.348682		0.353342		1.255153		1.891325		0.008044		0.019750		0.041182		-18.073216		0.522627		-2.873322		-0.289163		1.264865		1.901157		0.007670		-0.000222		0.001219		
0.990636		-72.900122		768.416774		191.632356		0.101359		0.000000		0.298944		-0.235789		2.485365		0.619815		46.035178		646.445266		163.176281		-0.156268		0.000000		0.331123		1.927362		27.064964		6.831777		4.542637		-0.940958		-0.467277		0.353302		1.255191		1.891397		0.005574		0.018119		0.044461		-17.950164		0.568836		-2.858320		-0.289195		1.264857		1.901180		0.008186		-0.000259		0.001303		
0.993742		-72.655068		754.886179		189.587015		0.102243		0.000000		0.299445		-0.247729		2.573898		0.646431		42.510700		621.649131		161.943902		-0.156371		0.000000		0.329702		1.826690		26.712497		6.958850		4.673716		-0.904401		-0.627628		0.353265		1.255221		1.891469		0.001585		0.016224		0.046185		-17.857069		0.621672		-2.749156		-0.289212		1.264850		1.901200		0.009526		-0.000332		0.001467		
0.996848		-71.112835		743.145112		190.779863		0.103195		0.000000		0.300438		-0.266522		2.785240		0.715036		40.003849		599.906898		163.407913		-0.157029		0.000000		0.328294		1.782286		26.727710		7.280399		4.834486		-0.836060		-0.813474		0.353233		1.255239		1.891537		-0.002761		0.013492		0.046075		-17.801047		0.661252		-2.610163		-0.289219		1.264847		1.901224		0.011108		-0.000412		0.001629		
0.999955		-68.742289		732.798191		194.724064		0.103884		0.000000		0.301143		-0.280417		2.989278		0.794336		37.576190		581.672551		165.849503		-0.157841		0.000000		0.327054		1.734828		26.854896		7.657031		5.007132		-0.747649		-0.991962		0.353208		1.255244		1.891597		-0.006068		0.009822		0.043953		-17.784656		0.678421		-2.521968		-0.289217		1.264847		1.901255		0.012217		-0.000466		0.001733		
1.003061		-66.022478		723.437500		200.290736		0.104186		0.000000		0.301173		-0.279852		3.066459		0.848980		34.813923		567.039422		167.981697		-0.158480		0.000000		0.326069		1.653230		26.927443		7.977094		5.167975		-0.657671		-1.119139		0.353193		1.255233		1.891647		-0.015740		0.002003		0.003408		-17.807993		0.676972		-2.534319		-0.289214		1.264850		1.901296		0.012309		-0.000468		0.001752		
1.006167		-63.148115		714.906967		206.209286		0.104156		0.000000		0.300544		-0.266324		3.015082		0.869674		32.164519		555.971934		169.559183		-0.158923		0.000000		0.325356		1.558703		26.942723		8.216957		5.284564		-0.587943		-1.160482		0.353186		1.255213		1.891688		-0.013533		0.001506		0.002972		-17.865469		0.667003		-2.640477		-0.289214		1.264852		1.901346		0.011181		-0.000417		0.001652		
1.009273		-60.029774		707.447175		211.535103		0.103926		0.000000		0.299549		-0.254089		2.994449		0.895381		30.511912		548.355988		171.093164		-0.159390		0.000000		0.324886		1.502315		26.999455		8.424147		5.324476		-0.556076		-1.113870		0.353185		1.255190		1.891724		-0.009825		0.001026		0.002056		-17.944439		0.655165		-2.790010		-0.289218		1.264852		1.901401		0.008990		-0.000328		0.001398		
1.012379		-56.596151		701.682442		215.772423		0.103672		0.000000		0.298649		-0.254593		3.156538		0.970668		30.430814		543.979332		173.027088		-0.160072		0.000000		0.324640		1.519881		27.169260		8.641915		5.271393		-0.568560		-1.019879		0.353188		1.255170		1.891759		-0.006273		0.000677		0.001214		-18.029354		0.642417		-2.925319		-0.289226		1.264848		1.901458		0.006179		-0.000220		0.001002		
1.015485		-53.004847		698.417290		218.727750		0.103578		0.000000		0.298276		-0.264985		3.491598		1.093487		31.735769		542.527270		175.114874		-0.160926		0.000000		0.324650		1.603389		27.410143		8.847341		5.136536		-0.618536		-0.945075		0.353192		1.255161		1.891796		-0.004295		0.000517		0.000790		-18.107343		0.629466		-3.014260		-0.289237		1.264842		1.901512		0.003354		-0.000116		0.000558		
1.018591		-49.539211		698.415808		220.336957		0.103718		0.000000		0.298624		-0.277630		3.914212		1.234860		33.634580		543.604918		176.456895		-0.161684		0.000000		0.324990		1.706681		27.583527		8.953751		4.958165		-0.689984		-0.943893		0.353195		1.255163		1.891837		0.000058		0.005510		0.020909		-18.169019		0.619894		-3.057689		-0.289248		1.264837		1.901560		0.001147		-0.000039		0.000193		
1.021697		-46.405999		702.198864		220.635756		0.103993		0.000000		0.299553		-0.291647		4.413312		1.386684		35.323572		546.728905		176.153838		-0.162068		0.000000		0.325703		1.780362		27.556047		8.878457		4.791440		-0.764600		-1.025621		0.353197		1.255177		1.891880		-0.001318		0.003637		0.022529		-18.204538		0.618171		-3.076689		-0.289259		1.264833		1.901602		0.000045		-0.000001		0.000007		
1.024803		-43.713568		710.037237		219.768504		0.104258		0.000000		0.300756		-0.308747		5.015199		1.552267		36.548229		551.463179		174.002521		-0.162012		0.000000		0.326760		1.809016		27.295668		8.612602		4.690834		-0.828464		-1.150762		0.353200		1.255197		1.891920		-0.003229		0.000453		0.025793		-18.200864		0.625291		-3.092067		-0.289267		1.264832		1.901638		0.000230		-0.000008		0.000039		
1.027909		-41.575452		721.919600		217.947230		0.104457		0.000000		0.301945		-0.325562		5.653199		1.706681		37.659532		557.546413		170.672925		-0.161699		0.000000		0.328052		1.816347		26.890926		8.231726		4.692766		-0.873453		-1.255859		0.353206		1.255220		1.891954		-0.004753		-0.002268		0.029915		-18.146236		0.635736		-3.115075		-0.289273		1.264833		1.901666		0.001489		-0.000052		0.000256		
1.031015		-40.100557		737.540560		215.351750		0.104623		0.000000		0.302991		-0.337443		6.206349		1.812166		39.189068		564.921028		167.242955		-0.161398		0.000000		0.329434		1.837396		26.486586		7.841269		4.802651		-0.892968		-1.293241		0.353212		1.255241		1.891978		-0.005259		-0.003022		0.034166		-18.040717		0.638087		-3.148912		-0.289278		1.264836		1.901688		0.003314		-0.000117		0.000579		
1.034121		-39.256522		756.292503		212.093447		0.104814		0.000000		0.303944		-0.345637		6.658887		1.867392		41.317076		573.640661		164.436707		-0.161249		0.000000		0.330790		1.885453		26.177503		7.503930		4.990649		-0.879306		-1.260291		0.353216		1.255257		1.891993		-0.004658		-0.001652		0.037984		-17.903134		0.620397		-3.191820		-0.289285		1.264837		1.901703		0.005176		-0.000179		0.000923		
1.037227		-38.810534		777.224357		208.319595		0.105072		0.000000		0.304963		-0.355625		7.121868		1.908851		43.664033		583.735430		162.113105		-0.161176		0.000000		0.332095		1.939911		25.934417		7.202465		5.198452		-0.829261		-1.196909		0.353214		1.255266		1.892001		-0.011975		0.001910		0.002758		-17.766367		0.579259		-3.237655		-0.289297		1.264837		1.901714		0.006764		-0.000220		0.001233		
1.040333		-38.470064		799.103382		204.302830		0.105395		0.000000		0.306146		-0.369561		7.676628		1.962619		45.573190		595.153747		159.416459		-0.160973		0.000000		0.333398		1.962325		25.626642		6.864347		5.361571		-0.751466		-1.151521		0.353200		1.255270		1.892008		-0.010937		0.001533		0.002349		-17.662798		0.523706		-3.272541		-0.289310		1.264833		1.901718		0.008040		-0.000238		0.001490		
1.043439		-38.033708		820.546525		200.409956		0.105727		0.000000		0.307428		-0.384187		8.288565		2.024384		46.578954		607.728515		155.411591		-0.160478		0.000000		0.334772		1.924931		25.115082		6.422606		5.434780		-0.668120		-1.147537		0.353174		1.255270		1.892013		-0.010479		0.001288		0.002213		-17.609397		0.471045		-3.272524		-0.289326		1.264829		1.901716		0.009069		-0.000243		0.001686		
1.046545		-37.411972		840.266191		196.970037		0.105993		0.000000		0.308641		-0.395618		8.885532		2.082885		46.693904		621.206523		149.736134		-0.159684		0.000000		0.336237		1.829981		24.345633		5.868340		5.408654		-0.608754		-1.171483		0.353137		1.255270		1.892019		-0.010989		0.001237		0.002380		-17.599831		0.438177		-3.210717		-0.289338		1.264826		1.901709		0.009816		-0.000244		0.001791		
